# xmcd
#
# Track frame offsets: 
#        150
#        29265
#        54476
#        78740
#        101035
#        121247
#        136006
#        142096
#        160214
#        182468
#        204364
#        227904
#        244834
#        287255
#
# Disc length: 4069 seconds
#
# Revision: 3
# Processed by: cddbd v1.5.2PL0 Copyright (c) Steve Scherf et al.
# Submitted via: ExactAudioCopy v1.0b2
#
DISCID=bc0fe30e
DTITLE=Gotan Project - Live (Lunático tour)
DYEAR=2008
DGENRE=Tango
TTITLE0=Diferente
TTITLE1=La vigüela
TTITLE2=Amor porteño
TTITLE3=Época
TTITLE4=Notas
TTITLE5=Lunático
TTITLE6=Che Bandonéon (interlude)
TTITLE7=Una música brutal
TTITLE8=Santa María (del Buen Ayre)
TTITLE9=Arrabal
TTITLE10=El norte
TTITLE11=Criminal
TTITLE12=Tríptico
TTITLE13=Diferente (version orquestal)
EXTD=
EXTT0=
EXTT1=
EXTT2=
EXTT3=
EXTT4=
EXTT5=
EXTT6=
EXTT7=
EXTT8=
EXTT9=
EXTT10=
EXTT11=
EXTT12=
EXTT13=
PLAYORDER=
